<svg width="73" height="57" viewBox="0 0 73 57" fill="none" xmlns="http://www.w3.org/2000/svg">
<path d="M15.5255 29.8418C14.5071 29.7217 13.4865 29.6124 12.4681 29.4794C9.58855 29.1021 8.14129 27.6848 7.7189 24.8182C7.60527 24.042 7.53666 23.2573 7.4659 22.4747C7.34369 21.1132 7.10569 19.786 6.4496 18.5618C6.33168 18.3431 6.22019 18.1072 6.17516 17.8671C5.39471 13.6539 3.02336 9.98542 2.07782 5.82375C1.83339 4.74527 1.17087 3.81474 0.495481 2.92494C-0.261381 1.93223 -0.175617 1.44553 0.922154 0.795867C2.45089 -0.111081 4.12756 -0.108936 5.81281 0.148354C9.80295 0.757274 13.2721 2.58832 16.4453 4.95754C23.0577 9.89536 28.6838 15.783 33.0684 22.8028C33.8381 24.0356 34.4878 25.3435 35.1996 26.6278C35.6413 26.304 35.4998 25.8988 35.4119 25.5322C35.2747 24.9726 35.2339 24.4987 35.8407 24.1492C36.2867 23.8919 36.6512 23.8233 37.1272 24.0914C37.7897 24.4666 37.7104 24.9962 37.5667 25.5751C37.4724 25.9567 37.3823 26.3384 37.8283 26.7264C38.643 24.9275 39.5886 23.2573 40.6628 21.6642C45.5084 14.4794 51.396 8.31732 58.6645 3.55316C61.2503 1.85933 64.0504 0.6029 67.1529 0.150498C68.4351 -0.0360376 69.713 -0.0639107 70.9758 0.292007C71.5333 0.45067 72.0329 0.710104 72.4724 1.0939C73.0385 1.58918 73.2164 2.07803 72.6697 2.73841C71.6727 3.94124 71.0938 5.3499 70.7078 6.86148C70.2726 8.55746 69.6422 10.1934 68.969 11.81C68.1885 13.6883 67.6761 15.6758 66.945 17.5476C65.9866 20.0026 65.7336 22.509 65.324 25.0369C64.8631 27.8778 63.5037 29.0956 60.6306 29.4837C59.6443 29.6167 58.6581 29.7346 57.6675 29.8611C57.6589 30.3456 58.0384 30.4185 58.2786 30.5751C59.833 31.5914 61.0959 32.9786 62.6954 33.9477C63.553 34.4666 63.8725 35.4357 64.1148 36.392C65.3326 41.1883 64.0118 45.2706 60.6349 48.7698C59.9874 49.4409 59.3678 50.127 58.8596 50.9074C57.0007 53.7591 54.2005 55.1527 51.0123 55.8645C48.8896 56.3384 47.1165 55.6394 45.8815 53.8234C45.146 52.7428 44.2605 51.8401 43.2271 51.0554C42.7725 50.7102 42.3673 50.3006 41.9171 49.9512C40.2168 48.6261 39.5114 46.8315 39.3634 44.7367C39.1855 42.2432 39.2713 39.7389 39.0011 37.2475C38.8038 35.425 38.2378 33.7033 37.5989 31.9666C37.5989 32.8349 37.5817 33.7011 37.6032 34.5695C37.6482 36.4906 37.7125 38.4117 37.4659 40.3221C37.3909 40.9031 37.3073 41.7029 36.5547 41.6986C35.83 41.6964 35.6692 40.8988 35.6049 40.3285C35.3862 38.4138 35.4634 36.4842 35.517 34.5609C35.5427 33.6797 35.5963 32.8006 35.637 31.8894C35.2125 31.9023 35.2661 32.2196 35.1996 32.4104C34.1833 35.2749 33.9196 38.2552 33.851 41.2655C33.8317 42.1574 33.7824 43.0515 33.7931 43.9434C33.8231 46.6257 32.8411 48.8041 30.6692 50.4207C29.2026 51.5121 27.9205 52.7621 26.8484 54.2779C25.785 55.7788 24.1297 56.2719 22.363 55.9139C19.2069 55.2728 16.3681 53.9949 14.4792 51.2119C13.4307 49.6681 12.0864 48.3774 10.9458 46.9108C8.39215 43.6304 8.16702 39.9919 9.07182 36.1411C9.36342 34.8997 10.0881 34.0313 11.2223 33.3581C12.7768 32.4361 13.9646 30.9932 15.577 30.1162C15.5577 30.024 15.5405 29.934 15.5212 29.8418H15.5255Z" fill="#C9E3E8"/>
<path d="M35.9411 22.8778C35.135 20.5493 33.8271 18.5875 31.7666 17.1767C34.1808 18.3302 35.4523 20.3177 35.9411 22.8778Z" fill="#C9E3E8"/>
<path d="M37.123 22.6377C37.584 20.2149 38.8662 18.3881 41.0875 17.2453C39.2328 18.6561 37.8563 20.4121 37.123 22.6377Z" fill="#C9E3E8"/>
</svg>
