<svg aria-hidden="true" style="position: absolute; width: 0; height: 0; overflow: hidden;" version="1.1" xmlns="http://www.w3.org/2000/svg" xmlns:xlink="http://www.w3.org/1999/xlink">
<defs>
<symbol id="icon-heart" viewBox="0 0 32 32">
<path d="M24.424 23.664c4.852-4.241 7.326-8.408 7.326-12.456 0-4.985-3.346-8.691-7.789-8.709-2.034 0-3.156 0.202-4.493 0.838-0.822 0.391-1.552 0.919-2.188 1.591l-1.276 1.346-1.288-1.335c-0.622-0.645-1.341-1.162-2.155-1.553-1.377-0.662-2.574-0.886-4.516-0.886-4.499 0-7.796 3.653-7.796 8.709 0 4.048 2.474 8.215 7.326 12.456 2.645 2.312 6.046 4.623 8.424 5.836 2.378-1.212 5.779-3.523 8.424-5.836z"></path>
</symbol>
<symbol id="icon-whatsapp" viewBox="0 0 32 32">
<path d="M30.119 15.635c0 7.596-6.206 13.756-13.861 13.756-2.432 0-4.716-0.621-6.7-1.713l-7.676 2.44 2.502-7.379c-1.262-2.072-1.989-4.504-1.989-7.102 0-7.599 6.206-13.756 13.861-13.756s13.861 6.16 13.861 13.756l0.003-0.003zM16.257 4.070c-6.429 0-11.654 5.187-11.654 11.565 0 2.53 0.823 4.874 2.22 6.781l-1.456 4.295 4.478-1.423c1.839 1.208 4.043 1.912 6.413 1.912 6.426 0 11.654-5.187 11.654-11.565s-5.228-11.565-11.654-11.565zM23.258 18.805c-0.085-0.14-0.313-0.225-0.652-0.393s-2.013-0.986-2.323-1.097c-0.311-0.111-0.538-0.168-0.763 0.168-0.228 0.336-0.877 1.097-1.076 1.322-0.197 0.225-0.396 0.254-0.735 0.085-0.341-0.168-1.436-0.525-2.732-1.674-1.009-0.895-1.692-1.997-1.891-2.336-0.197-0.336-0.021-0.52 0.147-0.688 0.153-0.153 0.341-0.393 0.51-0.59 0.171-0.197 0.228-0.339 0.339-0.564 0.114-0.225 0.057-0.422-0.028-0.59s-0.763-1.827-1.048-2.504c-0.282-0.673-0.564-0.649-0.763-0.649s-0.564 0.059-0.564 0.059c0 0-0.68 0.085-0.993 0.422-0.31 0.336-1.19 1.154-1.19 2.812s1.216 3.263 1.387 3.488c0.171 0.225 2.349 3.741 5.805 5.092 3.454 1.351 3.454 0.9 4.077 0.843 0.621-0.054 2.010-0.815 2.295-1.601s0.285-1.462 0.199-1.601v-0.003z"></path>
</symbol>
<symbol id="icon-tiktok" viewBox="0 0 32 32">
<path d="M27.803 13.648v-4.744c-6.252-0.261-6.406-5.9-6.406-6.428l-4.803-0.004v18.448c0 2.095-1.71 3.794-3.805 3.794s-3.797-1.703-3.797-3.798c0-2.095 1.717-3.794 3.816-3.794 0.374 0 0.737 0.055 1.119 0.165v-4.895c-4.726-0.613-9.044 2.711-9.657 7.423s2.7 9.026 7.412 9.639c4.711 0.613 9.033-2.711 9.646-7.423 0.066-0.506 0.070-0.98 0.070-1.468v-9.103c2.212 2.018 6.406 2.191 6.406 2.191v-0.004z"></path>
</symbol>
<symbol id="icon-telegram" viewBox="0 0 32 32">
<path d="M6.071 14.69c6.175-2.682 10.286-4.464 12.35-5.328 5.875-2.452 7.11-2.876 7.904-2.893 0.177 0 0.565 0.035 0.829 0.247 0.212 0.176 0.265 0.406 0.3 0.582s0.071 0.547 0.035 0.829c-0.318 3.352-1.694 11.486-2.399 15.226-0.3 1.588-0.882 2.117-1.447 2.17-1.235 0.106-2.17-0.812-3.352-1.588-1.87-1.217-2.911-1.976-4.728-3.176-2.099-1.376-0.741-2.135 0.459-3.37 0.317-0.318 5.734-5.258 5.84-5.699 0.018-0.053 0.018-0.265-0.106-0.37s-0.3-0.071-0.441-0.035c-0.194 0.035-3.158 2.011-8.927 5.91-0.847 0.582-1.606 0.864-2.294 0.847-0.759-0.018-2.205-0.423-3.299-0.776-1.323-0.423-2.382-0.653-2.294-1.394 0.053-0.388 0.582-0.776 1.57-1.182z"></path>
</symbol>
<symbol id="icon-instagram" viewBox="0 0 32 32">
<path d="M21.333 2.667h-10.667c-4.418 0-8 3.582-8 8v10.667c0 4.418 3.582 8 8 8h10.667c4.418 0 8-3.582 8-8v-10.667c0-4.418-3.582-8-8-8zM5.333 10.667c0-2.946 2.388-5.333 5.333-5.333h10.667c2.945 0 5.333 2.388 5.333 5.333v10.667c0 2.945-2.388 5.333-5.333 5.333h-10.667c-2.946 0-5.333-2.388-5.333-5.333v-10.667zM16 22.667c-3.682 0-6.667-2.985-6.667-6.667s2.985-6.667 6.667-6.667c3.682 0 6.667 2.985 6.667 6.667s-2.985 6.667-6.667 6.667zM16 20c2.209 0 4-1.791 4-4s-1.791-4-4-4c-2.209 0-4 1.791-4 4s1.791 4 4 4zM24 9.334c0 0.736-0.597 1.333-1.333 1.333s-1.333-0.597-1.333-1.333c0-0.736 0.597-1.333 1.333-1.333s1.333 0.597 1.333 1.333z"></path>
</symbol>
<symbol id="icon-close" viewBox="0 0 32 32">
<path d="M5.496 2.667l23.57 23.57-2.828 2.828-23.57-23.57 2.828-2.828z"></path>
<path d="M29.070 5.495l-23.57 23.57-2.828-2.828 23.57-23.57 2.828 2.828z"></path>
</symbol>
</defs>
</svg>
